name GIL12_xslow1.mot
datacolumns 153
datarows 4
range 0.15833344 0.18333343
endheader

                time	           pelvis_tx	           pelvis_ty	           pelvis_tz	         pelvis_tilt	         pelvis_list	     pelvis_rotation	       hip_flexion_r	     hip_adduction_r	      hip_rotation_r	        knee_angle_r	       ankle_angle_r	    subtalar_angle_r	         mtp_angle_r	       hip_flexion_l	     hip_adduction_l	      hip_rotation_l	        knee_angle_l	       ankle_angle_l	    subtalar_angle_l	         mtp_angle_l	    lumbar_extension	      lumbar_bending	     lumbar_rotation	     ground_force_vx	     ground_force_vy	     ground_force_vz	     ground_force_px	     ground_force_py	     ground_force_pz	     ground_force_vx	     ground_force_vy	     ground_force_vz	     ground_force_px	     ground_force_py	     ground_force_pz	     ground_torque_x	     ground_torque_y	     ground_torque_z	     ground_torque_x	     ground_torque_y	     ground_torque_z	    ground_marker_px	    ground_marker_py	    ground_marker_pz	    ground_marker_px	    ground_marker_py	    ground_marker_pz	    ground_marker_px	    ground_marker_py	    ground_marker_pz	    ground_marker_px	    ground_marker_py	    ground_marker_pz	    ground_marker_px	    ground_marker_py	    ground_marker_pz	    ground_marker_px	    ground_marker_py	    ground_marker_pz	    ground_marker_px	    ground_marker_py	    ground_marker_pz	    ground_marker_px	    ground_marker_py	    ground_marker_pz	    ground_marker_px	    ground_marker_py	    ground_marker_pz	    ground_marker_px	    ground_marker_py	    ground_marker_pz	    ground_marker_px	    ground_marker_py	    ground_marker_pz	    ground_marker_px	    ground_marker_py	    ground_marker_pz	    ground_marker_px	    ground_marker_py	    ground_marker_pz	    ground_marker_px	    ground_marker_py	    ground_marker_pz	    ground_marker_px	    ground_marker_py	    ground_marker_pz	    ground_marker_px	    ground_marker_py	    ground_marker_pz	    ground_marker_px	    ground_marker_py	    ground_marker_pz	    ground_marker_px	    ground_marker_py	    ground_marker_pz	    ground_marker_px	    ground_marker_py	    ground_marker_pz	    ground_marker_px	    ground_marker_py	    ground_marker_pz	    ground_marker_px	    ground_marker_py	    ground_marker_pz	    ground_marker_px	    ground_marker_py	    ground_marker_pz	    ground_marker_px	    ground_marker_py	    ground_marker_pz	    ground_marker_px	    ground_marker_py	    ground_marker_pz	    ground_marker_px	    ground_marker_py	    ground_marker_pz	    ground_marker_px	    ground_marker_py	    ground_marker_pz	    ground_marker_px	    ground_marker_py	    ground_marker_pz	    ground_marker_px	    ground_marker_py	    ground_marker_pz	    ground_marker_px	    ground_marker_py	    ground_marker_pz	    ground_marker_px	    ground_marker_py	    ground_marker_pz	    ground_marker_px	    ground_marker_py	    ground_marker_pz	    ground_marker_px	    ground_marker_py	    ground_marker_pz	    ground_marker_px	    ground_marker_py	    ground_marker_pz	    ground_marker_px	    ground_marker_py	    ground_marker_pz	    ground_marker_px	    ground_marker_py	    ground_marker_pz	    ground_marker_px	    ground_marker_py	    ground_marker_pz	    ground_marker_px	    ground_marker_py	    ground_marker_pz	
          0.15833344	          1.43998218	          0.69860721	         -0.17477459	         10.43455887	          4.56996393	        -16.52283096	        -19.09364319	        -12.26891136	        -15.54437923	        -35.93961334	        -26.07090378	          0.00000000	          0.00000000	          7.60439491	          3.86992598	        -15.00755692	        -15.32384014	         -1.54402232	          0.00000000	          0.00000000	        -15.33049107	         -9.24394417	          5.67404413	          0.00000000	          0.00000000	          0.00000000	          1.83020972	          0.00000000	         -0.08609085	        -30.83046247	        243.71704029	         12.00881635	          1.51954431	          0.00000000	         -0.23290541	          0.00000000	          0.00000000	          0.00000000	          0.00000000	          1.28500464	          0.00000000	          1.39825630	          0.62066901	         -0.19013813	          1.38682103	          0.62948918	         -0.13421865	          1.42045474	          0.63754457	         -0.24645594	          1.32521164	          0.33336142	         -0.10639322	          1.50418305	          0.34673458	         -0.22078812	          1.10072649	          0.13310382	         -0.12380238	          1.50943077	          0.05519614	         -0.22798651	          1.43998218	          0.69860721	         -0.17477459	          1.41451442	          0.69250762	         -0.08978751	          1.46544981	          0.70470685	         -0.25976166	          1.29914117	          0.70540988	         -0.17288016	          1.32248199	          0.70507807	         -0.25437495	          1.30250394	          0.34176096	         -0.06728049	          1.50702786	          0.34333509	         -0.26858300	          1.34597600	          0.32049015	         -0.14994489	          1.49056578	          0.34719804	         -0.17658365	          1.09036863	          0.14205678	         -0.09322771	          1.50315821	          0.05587043	         -0.25986832	          1.10638845	          0.13792159	         -0.15149745	          1.50344002	          0.05652081	         -0.19452031	          1.33315718	          1.02661335	         -0.22493117	          1.42369139	          0.97420299	         -0.15691067	          1.43957639	          0.96679485	         -0.24613222	          1.41415286	          0.98205215	         -0.19739385	          1.47185361	          0.85316789	         -0.18199441	          1.45829928	          0.39240155	         -0.07151164	          1.55130434	          0.43230939	         -0.32401815	          1.38755596	          0.46072131	         -0.07141270	          1.52444863	          0.48961625	         -0.24919477	          1.35846579	          0.38145557	         -0.07126618	          1.53681064	          0.40931019	         -0.22418226	          1.15255153	          0.18993321	         -0.01788871	          1.59648883	          0.16821948	         -0.19335829	          1.20407891	          0.23478964	         -0.07501125	          1.53501463	          0.22054148	         -0.21840817	          1.11627948	          0.04877940	         -0.13171338	          1.59419811	          0.03762913	         -0.21776155	
          0.16666676	          1.44486701	          0.69962597	         -0.17555694	         10.47204494	          4.53532696	        -16.74096680	        -17.71158600	        -12.44600582	        -16.19891357	        -38.18114853	        -24.93596649	          0.00000000	          0.00000000	          6.84454918	          4.05922747	        -14.74707127	        -14.80345345	         -1.34258819	          0.00000000	          0.00000000	        -15.16007137	         -9.43724060	          6.11915350	          0.00000000	          0.00000000	          0.00000000	          1.83106714	          0.00000000	         -0.08670227	        -30.51750469	        243.19774435	         11.49492772	          1.52089148	          0.00000000	         -0.23297647	          0.00000000	          0.00000000	          0.00000000	          0.00000000	          1.33568359	          0.00000000	          1.40342975	          0.62165987	         -0.19097418	          1.39157736	          0.63051784	         -0.13515322	          1.42563200	          0.63850582	         -0.24726832	          1.33651662	          0.33341590	         -0.10447764	          1.50534749	          0.34676084	         -0.22133221	          1.10926771	          0.13655691	         -0.12531672	          1.50949240	          0.05518613	         -0.22823331	          1.44486701	          0.69962597	         -0.17555694	          1.41907036	          0.69357502	         -0.09062865	          1.47066367	          0.70567691	         -0.26048523	          1.30408275	          0.70620537	         -0.17389371	          1.32757902	          0.70613098	         -0.25536108	          1.31298530	          0.34176576	         -0.06584399	          1.50853884	          0.34338561	         -0.26910692	          1.35748363	          0.32172593	         -0.14913882	          1.49167192	          0.34798878	         -0.17654529	          1.09857595	          0.14568023	         -0.09490784	          1.50317872	          0.05585078	         -0.26010719	          1.11524844	          0.14157020	         -0.15291731	          1.50347519	          0.05673968	         -0.19475076	          1.33781660	          1.02777600	         -0.22630937	          1.42883372	          0.97579974	         -0.15840885	          1.44435656	          0.96808255	         -0.24758212	          1.41910887	          0.98340434	         -0.19890974	          1.47716975	          0.85478246	         -0.18317011	          1.46765149	          0.39521274	         -0.06808872	          1.55437672	          0.43217373	         -0.32415634	          1.40114450	          0.46278113	         -0.06982321	          1.52738369	          0.48993447	         -0.24913310	          1.36866772	          0.38092327	         -0.07030956	          1.53887534	          0.40966967	         -0.22381057	          1.16009879	          0.19247496	         -0.01849581	          1.59708893	          0.16776621	         -0.19382258	          1.21306717	          0.23676601	         -0.07472537	          1.53578925	          0.22057803	         -0.21900111	          1.12464976	          0.05166305	         -0.13009569	          1.59410632	          0.03761448	         -0.21775392	
          0.17500010	          1.44962013	          0.70062089	         -0.17632005	         10.52362156	          4.48541117	        -16.91481972	        -16.34164429	        -12.57682419	        -16.71999168	        -40.45387650	        -22.79517555	          0.00000000	          0.00000000	          6.02677727	          4.26048756	        -14.06568909	        -14.20518970	         -1.22397900	          0.00000000	          0.00000000	        -15.03094101	         -9.60068989	          6.50346184	          0.00000000	          0.00000000	          0.00000000	          1.83192505	          0.00000000	         -0.08730621	        -30.54145083	        243.17357859	         11.21934754	          1.52252954	          0.00000000	         -0.23309816	          0.00000000	          0.00000000	          0.00000000	          0.00000000	          1.38304590	          0.00000000	          1.40851188	          0.62259591	         -0.19173440	          1.39625514	          0.63151580	         -0.13601069	          1.43064070	          0.63941997	         -0.24803068	          1.34786928	          0.33366850	         -0.10256954	          1.50614560	          0.34673870	         -0.22187439	          1.11802733	          0.14015891	         -0.12700231	          1.50955939	          0.05518437	         -0.22847706	          1.44962013	          0.70062089	         -0.17632005	          1.42355239	          0.69462878	         -0.09139762	          1.47568786	          0.70661306	         -0.26124248	          1.30885875	          0.70693421	         -0.17476481	          1.33241987	          0.70710111	         -0.25618407	          1.32363272	          0.34189713	         -0.06434813	          1.50998294	          0.34346277	         -0.26960847	          1.37329650	          0.31934837	         -0.14657931	          1.49280691	          0.34811398	         -0.17707814	          1.10713375	          0.14926663	         -0.09666040	          1.50320292	          0.05583159	         -0.26034281	          1.12474418	          0.14503042	         -0.15423998	          1.50361669	          0.05694133	         -0.19499353	          1.34241176	          1.02880728	         -0.22761534	          1.43375146	          0.97724807	         -0.15977581	          1.44894278	          0.96924359	         -0.24893080	          1.42389226	          0.98464918	         -0.20027965	          1.48220408	          0.85623038	         -0.18426347	          1.47706294	          0.39822260	         -0.06504396	          1.55775893	          0.43231046	         -0.32392418	          1.40416241	          0.46376565	         -0.06880323	          1.52988195	          0.49038982	         -0.24830210	          1.37872469	          0.38112646	         -0.06851873	          1.54083645	          0.40998018	         -0.22327125	          1.16825521	          0.19458584	         -0.01918922	          1.59760964	          0.16739483	         -0.19426550	          1.22271645	          0.23865473	         -0.07449922	          1.53659618	          0.22060156	         -0.21952866	          1.13438463	          0.05492350	         -0.12792790	          1.59403419	          0.03759752	         -0.21777904	
          0.18333343	          1.45423317	          0.70158851	         -0.17704909	         10.57328224	          4.41617346	        -17.04456520	        -14.98439598	        -12.64673328	        -17.07201195	        -42.69294357	        -19.96645355	          0.00000000	          0.00000000	          5.18822289	          4.44786501	        -13.10969067	        -13.56624222	         -1.15428519	          0.00000000	          0.00000000	        -14.94177341	         -9.66612911	          6.71274376	          0.00000000	          0.00000000	          0.00000000	          1.83276025	          0.00000000	         -0.08789235	        -30.75887992	        243.86078186	         11.19882509	          1.52420911	          0.00000000	         -0.23326038	          0.00000000	          0.00000000	          0.00000000	          0.00000000	          1.42030811	          0.00000000	          1.41341209	          0.62348640	         -0.19237852	          1.40082622	          0.63249749	         -0.13677117	          1.43545568	          0.64028382	         -0.24872424	          1.35917902	          0.33414644	         -0.10072061	          1.50669658	          0.34668577	         -0.22243553	          1.12711179	          0.14372131	         -0.12880276	          1.50961721	          0.05518344	         -0.22871552	          1.45423317	          0.70158851	         -0.17704909	          1.42795432	          0.69567978	         -0.09209279	          1.48051214	          0.70749718	         -0.26200539	          1.31347477	          0.70764136	         -0.17549443	          1.33701956	          0.70800579	         -0.25685364	          1.33438063	          0.34218758	         -0.06282104	          1.51136172	          0.34354943	         -0.27010521	          1.38525093	          0.31899595	         -0.14336012	          1.49372518	          0.34816214	         -0.17787369	          1.11610675	          0.15265688	         -0.09844997	          1.50323379	          0.05580588	         -0.26057640	          1.13504934	          0.14788437	         -0.15561567	          1.50363851	          0.05709480	         -0.19529210	          1.34692454	          1.02973378	         -0.22880891	          1.43843365	          0.97846210	         -0.16098636	          1.45352948	          0.97026038	         -0.25023660	          1.42849600	          0.98577976	         -0.20151700	          1.48703182	          0.85745144	         -0.18530239	          1.48655379	          0.40144098	         -0.06246807	          1.56129110	          0.43262684	         -0.32346886	          1.41213977	          0.46514809	         -0.06770191	          1.53249729	          0.49085525	         -0.24739310	          1.38873887	          0.38227898	         -0.06626688	          1.54274952	          0.41017222	         -0.22277413	          1.17698050	          0.19626436	         -0.01994254	          1.59804630	          0.16709331	         -0.19465333	          1.23276949	          0.24032936	         -0.07428752	          1.53731477	          0.22055316	         -0.22005461	          1.14537215	          0.05839241	         -0.12529360	          1.59398127	          0.03757815	         -0.21783800	
